<svg xmlns="http://www.w3.org/2000/svg" xmlns:xlink="http://www.w3.org/1999/xlink" id="Groupe_805" data-name="Groupe 805" width="381.471" height="381.471" viewBox="0 0 381.471 381.471"><defs><clipPath id="clip-path"><rect id="Rectangle_119" data-name="Rectangle 119" width="381.471" height="381.471" fill="#eee"></rect></clipPath></defs><g id="Groupe_119" data-name="Groupe 119" transform="translate(0 0)" clip-path="url(#clip-path)"><path id="Trac&#xE9;_92" data-name="Trac&#xE9; 92" d="M53.068,78.473A39.277,39.277,0,1,1,96.049,43.289,39.276,39.276,0,0,1,53.068,78.473" transform="translate(70.482 0.442)" fill="#eee"></path><path id="Trac&#xE9;_93" data-name="Trac&#xE9; 93" d="M51.7,64.156a39.275,39.275,0,1,1,55.269,5.513A39.276,39.276,0,0,1,51.7,64.156" transform="translate(170.603 0.003)" fill="#eee"></path><path id="Trac&#xE9;_94" data-name="Trac&#xE9; 94" d="M60.85,53.068A39.277,39.277,0,1,1,96.035,96.049,39.276,39.276,0,0,1,60.85,53.068" transform="translate(241.707 70.483)" fill="#eee"></path><path id="Trac&#xE9;_95" data-name="Trac&#xE9; 95" d="M75.163,51.7a39.275,39.275,0,1,1-5.513,55.269A39.276,39.276,0,0,1,75.163,51.7" transform="translate(242.151 170.604)" fill="#eee"></path><path id="Trac&#xE9;_96" data-name="Trac&#xE9; 96" d="M86.256,60.85A39.277,39.277,0,1,1,43.274,96.035,39.276,39.276,0,0,1,86.256,60.85" transform="translate(171.666 241.708)" fill="#eee"></path><path id="Trac&#xE9;_97" data-name="Trac&#xE9; 97" d="M87.622,75.163a39.275,39.275,0,1,1-55.269-5.513,39.276,39.276,0,0,1,55.269,5.513" transform="translate(71.551 242.152)" fill="#eee"></path><path id="Trac&#xE9;_98" data-name="Trac&#xE9; 98" d="M78.473,86.256A39.277,39.277,0,1,1,43.289,43.274,39.276,39.276,0,0,1,78.473,86.256" transform="translate(0.44 171.667)" fill="#eee"></path><path id="Trac&#xE9;_99" data-name="Trac&#xE9; 99" d="M64.156,87.622A39.275,39.275,0,1,1,69.67,32.353a39.276,39.276,0,0,1-5.513,55.269" transform="translate(0.001 71.552)" fill="#eee"></path></g></svg>